<svg aria-hidden="true" style="position: absolute; width: 0; height: 0; overflow: hidden;" version="1.1" xmlns="http://www.w3.org/2000/svg" xmlns:xlink="http://www.w3.org/1999/xlink">
<defs>
<symbol id="iconyoutube" viewBox="0 0 46 32">
<path d="M35.83 0h-26.438c-5.187 0-9.392 4.205-9.392 9.392v13.216c0 5.187 4.205 9.392 9.392 9.392h26.438c5.187 0 9.392-4.205 9.392-9.392v-13.216c0-5.187-4.205-9.392-9.392-9.392zM29.478 16.643l-12.366 5.898c-0.329 0.157-0.71-0.083-0.71-0.448v-12.164c0-0.37 0.391-0.61 0.721-0.443l12.366 6.266c0.368 0.186 0.361 0.714-0.011 0.891z"></path>
</symbol>
<symbol id="iconVK" viewBox="0 0 58 32">
<path d="M55.789 28.9c-0.068-0.146-0.131-0.268-0.19-0.365-0.973-1.752-2.833-3.904-5.578-6.454l-0.058-0.058-0.029-0.029-0.029-0.029h-0.029c-1.246-1.188-2.035-1.986-2.365-2.395-0.604-0.779-0.74-1.567-0.41-2.366 0.233-0.603 1.11-1.878 2.628-3.825 0.798-1.032 1.431-1.859 1.898-2.482 3.368-4.478 4.828-7.339 4.38-8.585l-0.174-0.291c-0.117-0.175-0.419-0.336-0.905-0.482s-1.11-0.17-1.869-0.073l-8.41 0.058c-0.136-0.048-0.331-0.044-0.584 0.015s-0.38 0.088-0.38 0.088l-0.146 0.073-0.116 0.088c-0.097 0.058-0.204 0.16-0.321 0.306s-0.213 0.316-0.291 0.511c-0.916 2.356-1.957 4.546-3.125 6.57-0.72 1.207-1.382 2.253-1.986 3.139s-1.109 1.538-1.518 1.956c-0.409 0.419-0.778 0.754-1.11 1.007s-0.584 0.361-0.759 0.321c-0.176-0.039-0.341-0.078-0.497-0.117-0.272-0.175-0.491-0.414-0.657-0.715s-0.278-0.681-0.336-1.139c-0.058-0.458-0.092-0.852-0.102-1.183s-0.005-0.798 0.015-1.402c0.020-0.604 0.029-1.012 0.029-1.226 0-0.74 0.015-1.543 0.043-2.409s0.053-1.553 0.073-2.058c0.020-0.506 0.029-1.042 0.029-1.606s-0.034-1.007-0.102-1.329c-0.067-0.321-0.17-0.632-0.306-0.935s-0.336-0.535-0.599-0.701c-0.263-0.165-0.589-0.297-0.978-0.394-1.032-0.234-2.346-0.36-3.943-0.379-3.621-0.039-5.947 0.195-6.979 0.701-0.409 0.214-0.779 0.506-1.11 0.876-0.351 0.428-0.399 0.662-0.146 0.701 1.168 0.175 1.995 0.594 2.482 1.256l0.176 0.351c0.136 0.253 0.273 0.701 0.409 1.343s0.224 1.353 0.263 2.131c0.097 1.421 0.097 2.638 0 3.65s-0.19 1.801-0.277 2.365-0.219 1.022-0.394 1.372c-0.176 0.35-0.292 0.565-0.351 0.642s-0.107 0.127-0.146 0.146c-0.253 0.097-0.516 0.146-0.788 0.146s-0.604-0.136-0.993-0.409c-0.389-0.273-0.793-0.647-1.212-1.124s-0.891-1.144-1.417-2c-0.525-0.857-1.071-1.869-1.635-3.037l-0.467-0.847c-0.292-0.545-0.691-1.338-1.197-2.38s-0.954-2.049-1.343-3.023c-0.156-0.409-0.389-0.72-0.701-0.934l-0.146-0.088c-0.097-0.078-0.253-0.16-0.467-0.248s-0.438-0.151-0.672-0.19l-8.001 0.058c-0.818 0-1.372 0.185-1.665 0.555l-0.117 0.175c-0.058 0.097-0.088 0.253-0.088 0.467s0.058 0.477 0.175 0.788c1.168 2.745 2.438 5.393 3.811 7.943s2.565 4.605 3.577 6.161c1.012 1.558 2.044 3.028 3.095 4.41s1.747 2.268 2.088 2.657c0.341 0.39 0.609 0.681 0.803 0.876l0.73 0.701c0.467 0.467 1.153 1.027 2.059 1.679s1.908 1.295 3.008 1.928c1.1 0.632 2.38 1.148 3.84 1.547s2.881 0.56 4.264 0.482h3.358c0.681-0.059 1.197-0.273 1.548-0.643l0.116-0.146c0.078-0.116 0.151-0.297 0.219-0.54 0.068-0.243 0.102-0.511 0.102-0.803-0.020-0.837 0.044-1.591 0.189-2.263s0.311-1.177 0.497-1.518c0.185-0.341 0.395-0.628 0.628-0.861s0.4-0.375 0.497-0.424c0.097-0.049 0.174-0.082 0.233-0.102 0.467-0.156 1.017-0.005 1.65 0.453s1.226 1.022 1.782 1.694c0.555 0.672 1.222 1.426 2 2.263s1.46 1.46 2.044 1.869l0.584 0.35c0.39 0.234 0.896 0.448 1.519 0.643 0.622 0.195 1.167 0.243 1.635 0.146l7.475-0.117c0.739 0 1.315-0.122 1.723-0.365s0.652-0.511 0.73-0.803c0.078-0.292 0.082-0.623 0.015-0.993-0.069-0.369-0.137-0.628-0.205-0.774z"></path>
</symbol>
<symbol id="iconinstagram" viewBox="0 0 32 32">
<path  d="M22 0h-12c-5.522 0-10 4.478-10 10v12c0 5.522 4.478 10 10 10h12c5.522 0 10-4.478 10-10v-12c0-5.522-4.478-10-10-10zM29 22c0 3.86-3.14 7-7 7h-12c-3.86 0-7-3.14-7-7v-12c0-3.86 3.14-7 7-7h12c3.86 0 7 3.14 7 7v12z"></path>
<path d="M16 8c-4.418 0-8 3.582-8 8s3.582 8 8 8c4.418 0 8-3.582 8-8s-3.582-8-8-8zM16 21c-2.756 0-5-2.244-5-5 0-2.758 2.244-5 5-5s5 2.242 5 5c0 2.756-2.244 5-5 5z"></path>
<path  d="M24.6 8.466c0.589 0 1.066-0.477 1.066-1.066s-0.477-1.066-1.066-1.066c-0.589 0-1.066 0.477-1.066 1.066s0.477 1.066 1.066 1.066z"></path>
</symbol>
<symbol id="iconfacebook-logo" viewBox="0 0 32 32">
<path  d="M23.999 0.007l-4.15-0.007c-4.662 0-7.675 3.091-7.675 7.875v3.631h-4.172c-0.361 0-0.652 0.292-0.652 0.653v5.261c0 0.36 0.292 0.652 0.652 0.652h4.172v13.275c0 0.36 0.292 0.652 0.652 0.652h5.444c0.36 0 0.652-0.292 0.652-0.652v-13.275h4.878c0.36 0 0.652-0.292 0.652-0.652l0.002-5.261c0-0.173-0.069-0.339-0.191-0.461s-0.289-0.191-0.462-0.191h-4.88v-3.078c0-1.479 0.352-2.23 2.28-2.23l2.796-0.001c0.36 0 0.652-0.292 0.652-0.652v-4.885c0-0.36-0.292-0.652-0.652-0.652z"></path>
</symbol>
<symbol id="iconphone-call" viewBox="0 0 32 32">
<path  d="M31.979 26.337c-0.102-0.769-0.546-1.432-1.218-1.819l-7.895-4.545c-0.967-0.557-2.194-0.395-2.983 0.395l-1.555 1.555c-0.414 0.414-1.069 0.451-1.522 0.085-1.226-0.986-2.433-2.072-3.587-3.227s-2.24-2.362-3.227-3.587c-0.365-0.454-0.329-1.109 0.085-1.523l1.555-1.555c0.789-0.789 0.951-2.016 0.395-2.983l-4.545-7.894c-0.387-0.672-1.050-1.116-1.819-1.218s-1.525 0.155-2.073 0.703l-2.343 2.343c-1.635 1.635-1.662 4.627-0.074 8.423 1.527 3.65 4.375 7.669 8.022 11.315s7.665 6.495 11.315 8.022c1.869 0.782 3.542 1.172 4.955 1.172 1.457 0 2.638-0.416 3.468-1.246l2.343-2.343c0.548-0.548 0.805-1.304 0.703-2.073zM22.35 20.871l7.895 4.545c0.39 0.225 0.648 0.61 0.707 1.056 0.050 0.375-0.048 0.744-0.268 1.041l-10.492-5.988 0.426-0.426c0.458-0.458 1.171-0.553 1.732-0.229zM5.527 1.049c0.447 0.059 0.832 0.317 1.056 0.707l4.545 7.895c0.323 0.562 0.229 1.274-0.229 1.732l-0.391 0.391-6.021-10.457c0.246-0.182 0.54-0.281 0.847-0.281 0.064 0 0.128 0.004 0.192 0.013zM28.2 30.020c-1.299 1.299-3.956 1.245-7.29-0.149-3.529-1.476-7.429-4.245-10.982-7.798s-6.323-7.453-7.798-10.982c-1.394-3.334-1.449-5.991-0.149-7.29l1.739-1.739 6.030 10.473-0.404 0.404c-0.789 0.789-0.858 2.038-0.16 2.905 1.010 1.255 2.12 2.49 3.301 3.67s2.416 2.291 3.671 3.301c0.867 0.698 2.116 0.629 2.906-0.16l0.369-0.369 10.506 5.996-1.737 1.738z"></path>
</symbol>
<symbol id="iconplaceholder" viewBox="0 0 32 32">
<path  d="M16.104 7.013c-2.255 0-4.091 1.836-4.091 4.091s1.836 4.091 4.091 4.091c2.255 0 4.091-1.836 4.091-4.091s-1.836-4.091-4.091-4.091zM16.104 14.026c-1.611 0-2.922-1.311-2.922-2.922s1.311-2.922 2.922-2.922c1.611 0 2.922 1.311 2.922 2.922s-1.311 2.922-2.922 2.922z"></path>
<path  d="M23.926 3.283c-2.117-2.117-4.931-3.283-7.925-3.283s-5.808 1.166-7.924 3.283c-3.917 3.917-4.404 11.286-1.054 15.751l8.979 12.967 8.965-12.949c3.363-4.483 2.877-11.852-1.041-15.769zM24.018 18.368l-8.017 11.578-8.030-11.596c-3.038-4.051-2.603-10.706 0.933-14.241 1.896-1.896 4.416-2.94 7.097-2.94s5.202 1.044 7.098 2.94c3.536 3.535 3.971 10.19 0.919 14.259z"></path>
</symbol>
<symbol id="iconvidoe" viewBox="0 0 32 32">
<path fill="#d4c17f" style="fill: var(--color1, #d4c17f)" d="M16 0c-8.836 0-16 7.164-16 16s7.164 16 16 16 16-7.164 16-16-7.164-16-16-16zM21.53 16.848l-8 5c-0.15 0.095-0.333 0.152-0.53 0.152-0.552 0-1-0.448-1-1v-10c0-0 0-0 0-0.001 0-0.552 0.448-1 1-1 0.197 0 0.38 0.057 0.534 0.155l-0.004-0.002 8 5c0.284 0.18 0.47 0.492 0.47 0.848v0c-0 0.356-0.186 0.668-0.466 0.846l-0.004 0.002z"></path>
</symbol>
<symbol id="iconclose" viewBox="0 0 32 32">
<path d="M26.667 7.303l-1.97-1.97-7.808 7.808-7.808-7.808-1.97 1.97 7.808 7.808-7.808 7.808 1.97 1.97 7.808-7.808 7.808 7.808 1.97-1.97-7.808-7.808 7.808-7.808z"></path>
</symbol>
</defs>
</svg>
