<svg aria-hidden="true" style="position: absolute; width: 0; height: 0; overflow: hidden;" version="1.1" xmlns="http://www.w3.org/2000/svg" xmlns:xlink="http://www.w3.org/1999/xlink">
<defs>
<symbol id="iconvidoe" viewBox="0 0 32 32">
<path fill="#d4c17f" style="fill: var(--color1, #d4c17f)" d="M16 0c-8.836 0-16 7.164-16 16s7.164 16 16 16 16-7.164 16-16-7.164-16-16-16zM21.53 16.848l-8 5c-0.15 0.095-0.333 0.152-0.53 0.152-0.552 0-1-0.448-1-1v-10c0-0 0-0 0-0.001 0-0.552 0.448-1 1-1 0.197 0 0.38 0.057 0.534 0.155l-0.004-0.002 8 5c0.284 0.18 0.47 0.492 0.47 0.848v0c-0 0.356-0.186 0.668-0.466 0.846l-0.004 0.002z"></path>
</symbol>
</defs>
</svg>
